<?xml version="1.0" encoding="UTF-8" standalone="no"?>
<!-- Created with Inkscape (http://www.inkscape.org/) -->

<svg
   xmlns:dc="http://purl.org/dc/elements/1.1/"
   xmlns:cc="http://creativecommons.org/ns#"
   xmlns:rdf="http://www.w3.org/1999/02/22-rdf-syntax-ns#"
   xmlns:svg="http://www.w3.org/2000/svg"
   xmlns="http://www.w3.org/2000/svg"
   version="1.1"
   width="81"
   height="45"
   id="svg4364">
  <defs
     id="defs4366" />
  <metadata
     id="metadata4369">
    <rdf:RDF>
      <cc:Work
         rdf:about="">
        <dc:format>image/svg+xml</dc:format>
        <dc:type
           rdf:resource="http://purl.org/dc/dcmitype/StillImage" />
        <dc:title></dc:title>
      </cc:Work>
    </rdf:RDF>
  </metadata>
  <g
     transform="translate(0,-1007.362)"
     id="silkscreen"
     style="display:inline">
    <path
       d="m 4.5,1025.362 0,9 c 2.4852814,0 4.5,-2.0147 4.5,-4.5 0,-2.4853 -2.0147186,-4.5 -4.5,-4.5 z"
       id="rect6737"
       style="fill:none;stroke:#ffffff;stroke-width:0.44999999;stroke-linecap:round;stroke-linejoin:round;stroke-miterlimit:4;stroke-opacity:1;stroke-dasharray:none;stroke-dashoffset:0" />
    <rect
       width="72"
       height="36"
       x="4.5"
       y="1011.862"
       id="rect6742"
       style="fill:none;stroke:#ffffff;stroke-width:0.40249223;stroke-linecap:round;stroke-linejoin:round;stroke-miterlimit:4;stroke-opacity:1;stroke-dasharray:none;stroke-dashoffset:0" />
    <g
       id="copper0">
      <path
         d="m 11.25,45 a 2.25,2.25 0 1 1 -4.5,0 2.25,2.25 0 1 1 4.5,0 z"
         transform="translate(0,998.362)"
         id="connector1pad"
         style="fill:none;stroke:#f6ca34;stroke-width:1.79999995;stroke-linecap:round;stroke-linejoin:round;stroke-miterlimit:4;stroke-opacity:1;stroke-dasharray:none;stroke-dashoffset:0;display:inline" />
      <path
         d="m 11.25,45 a 2.25,2.25 0 1 1 -4.5,0 2.25,2.25 0 1 1 4.5,0 z"
         transform="translate(0,971.362)"
         id="connector16pad"
         style="fill:none;stroke:#f6ca34;stroke-width:1.79999995;stroke-linecap:round;stroke-linejoin:round;stroke-miterlimit:4;stroke-opacity:1;stroke-dasharray:none;stroke-dashoffset:0;display:inline" />
      <path
         d="m 11.25,45 a 2.25,2.25 0 1 1 -4.5,0 2.25,2.25 0 1 1 4.5,0 z"
         transform="translate(9,998.362)"
         id="connector2pad"
         style="fill:none;stroke:#f6ca34;stroke-width:1.79999995;stroke-linecap:round;stroke-linejoin:round;stroke-miterlimit:4;stroke-opacity:1;stroke-dasharray:none;stroke-dashoffset:0;display:inline" />
      <path
         d="m 11.25,45 a 2.25,2.25 0 1 1 -4.5,0 2.25,2.25 0 1 1 4.5,0 z"
         transform="translate(9,971.362)"
         id="connector15pad"
         style="fill:none;stroke:#f6ca34;stroke-width:1.79999995;stroke-linecap:round;stroke-linejoin:round;stroke-miterlimit:4;stroke-opacity:1;stroke-dasharray:none;stroke-dashoffset:0;display:inline" />
      <path
         d="m 11.25,45 a 2.25,2.25 0 1 1 -4.5,0 2.25,2.25 0 1 1 4.5,0 z"
         transform="translate(18,998.362)"
         id="connector3pad"
         style="fill:none;stroke:#f6ca34;stroke-width:1.79999995;stroke-linecap:round;stroke-linejoin:round;stroke-miterlimit:4;stroke-opacity:1;stroke-dasharray:none;stroke-dashoffset:0;display:inline" />
      <path
         d="m 11.25,45 a 2.25,2.25 0 1 1 -4.5,0 2.25,2.25 0 1 1 4.5,0 z"
         transform="translate(18,971.362)"
         id="connector14pad"
         style="fill:none;stroke:#f6ca34;stroke-width:1.79999995;stroke-linecap:round;stroke-linejoin:round;stroke-miterlimit:4;stroke-opacity:1;stroke-dasharray:none;stroke-dashoffset:0;display:inline" />
      <path
         d="m 11.25,45 a 2.25,2.25 0 1 1 -4.5,0 2.25,2.25 0 1 1 4.5,0 z"
         transform="translate(27,998.362)"
         id="connector4pad"
         style="fill:none;stroke:#f6ca34;stroke-width:1.79999995;stroke-linecap:round;stroke-linejoin:round;stroke-miterlimit:4;stroke-opacity:1;stroke-dasharray:none;stroke-dashoffset:0;display:inline" />
      <path
         d="m 11.25,45 a 2.25,2.25 0 1 1 -4.5,0 2.25,2.25 0 1 1 4.5,0 z"
         transform="translate(27,971.362)"
         id="connector13pad"
         style="fill:none;stroke:#f6ca34;stroke-width:1.79999995;stroke-linecap:round;stroke-linejoin:round;stroke-miterlimit:4;stroke-opacity:1;stroke-dasharray:none;stroke-dashoffset:0;display:inline" />
      <path
         d="m 11.25,45 a 2.25,2.25 0 1 1 -4.5,0 2.25,2.25 0 1 1 4.5,0 z"
         transform="translate(36,998.362)"
         id="connector5pad"
         style="fill:none;stroke:#f6ca34;stroke-width:1.79999995;stroke-linecap:round;stroke-linejoin:round;stroke-miterlimit:4;stroke-opacity:1;stroke-dasharray:none;stroke-dashoffset:0;display:inline" />
      <path
         d="m 11.25,45 a 2.25,2.25 0 1 1 -4.5,0 2.25,2.25 0 1 1 4.5,0 z"
         transform="translate(36,971.362)"
         id="connector12pad"
         style="fill:none;stroke:#f6ca34;stroke-width:1.79999995;stroke-linecap:round;stroke-linejoin:round;stroke-miterlimit:4;stroke-opacity:1;stroke-dasharray:none;stroke-dashoffset:0;display:inline" />
      <path
         d="m 11.25,45 a 2.25,2.25 0 1 1 -4.5,0 2.25,2.25 0 1 1 4.5,0 z"
         transform="translate(45,998.362)"
         id="connector6pad"
         style="fill:none;stroke:#f6ca34;stroke-width:1.79999995;stroke-linecap:round;stroke-linejoin:round;stroke-miterlimit:4;stroke-opacity:1;stroke-dasharray:none;stroke-dashoffset:0;display:inline" />
      <path
         d="m 11.25,45 a 2.25,2.25 0 1 1 -4.5,0 2.25,2.25 0 1 1 4.5,0 z"
         transform="translate(45,971.362)"
         id="connector11pad"
         style="fill:none;stroke:#f6ca34;stroke-width:1.79999995;stroke-linecap:round;stroke-linejoin:round;stroke-miterlimit:4;stroke-opacity:1;stroke-dasharray:none;stroke-dashoffset:0;display:inline" />
      <path
         d="m 11.25,45 a 2.25,2.25 0 1 1 -4.5,0 2.25,2.25 0 1 1 4.5,0 z"
         transform="translate(54,998.362)"
         id="connector7pad"
         style="fill:none;stroke:#f6ca34;stroke-width:1.79999995;stroke-linecap:round;stroke-linejoin:round;stroke-miterlimit:4;stroke-opacity:1;stroke-dasharray:none;stroke-dashoffset:0;display:inline" />
      <path
         d="m 11.25,45 a 2.25,2.25 0 1 1 -4.5,0 2.25,2.25 0 1 1 4.5,0 z"
         transform="translate(54,971.362)"
         id="connector10pad"
         style="fill:none;stroke:#f6ca34;stroke-width:1.79999995;stroke-linecap:round;stroke-linejoin:round;stroke-miterlimit:4;stroke-opacity:1;stroke-dasharray:none;stroke-dashoffset:0;display:inline" />
      <path
         d="m 11.25,45 a 2.25,2.25 0 1 1 -4.5,0 2.25,2.25 0 1 1 4.5,0 z"
         transform="translate(63,998.362)"
         id="connector8pad"
         style="fill:none;stroke:#f6ca34;stroke-width:1.79999995;stroke-linecap:round;stroke-linejoin:round;stroke-miterlimit:4;stroke-opacity:1;stroke-dasharray:none;stroke-dashoffset:0;display:inline" />
      <path
         d="m 11.25,45 a 2.25,2.25 0 1 1 -4.5,0 2.25,2.25 0 1 1 4.5,0 z"
         transform="translate(63,971.362)"
         id="connector9pad"
         style="fill:none;stroke:#f6ca34;stroke-width:1.79999995;stroke-linecap:round;stroke-linejoin:round;stroke-miterlimit:4;stroke-opacity:1;stroke-dasharray:none;stroke-dashoffset:0;display:inline" />
    </g>
    <g
       id="copper1">
      <path
         d="m 11.25,45 a 2.25,2.25 0 1 1 -4.5,0 2.25,2.25 0 1 1 4.5,0 z"
         transform="translate(0,998.362)"
         id="connector1pad"
         style="fill:none;stroke:#f6ca34;stroke-width:1.79999995;stroke-linecap:round;stroke-linejoin:round;stroke-miterlimit:4;stroke-opacity:1;stroke-dasharray:none;stroke-dashoffset:0;display:inline" />
      <path
         d="m 11.25,45 a 2.25,2.25 0 1 1 -4.5,0 2.25,2.25 0 1 1 4.5,0 z"
         transform="translate(0,971.362)"
         id="connector16pad"
         style="fill:none;stroke:#f6ca34;stroke-width:1.79999995;stroke-linecap:round;stroke-linejoin:round;stroke-miterlimit:4;stroke-opacity:1;stroke-dasharray:none;stroke-dashoffset:0;display:inline" />
      <path
         d="m 11.25,45 a 2.25,2.25 0 1 1 -4.5,0 2.25,2.25 0 1 1 4.5,0 z"
         transform="translate(9,998.362)"
         id="connector2pad"
         style="fill:none;stroke:#f6ca34;stroke-width:1.79999995;stroke-linecap:round;stroke-linejoin:round;stroke-miterlimit:4;stroke-opacity:1;stroke-dasharray:none;stroke-dashoffset:0;display:inline" />
      <path
         d="m 11.25,45 a 2.25,2.25 0 1 1 -4.5,0 2.25,2.25 0 1 1 4.5,0 z"
         transform="translate(9,971.362)"
         id="connector15pad"
         style="fill:none;stroke:#f6ca34;stroke-width:1.79999995;stroke-linecap:round;stroke-linejoin:round;stroke-miterlimit:4;stroke-opacity:1;stroke-dasharray:none;stroke-dashoffset:0;display:inline" />
      <path
         d="m 11.25,45 a 2.25,2.25 0 1 1 -4.5,0 2.25,2.25 0 1 1 4.5,0 z"
         transform="translate(18,998.362)"
         id="connector3pad"
         style="fill:none;stroke:#f6ca34;stroke-width:1.79999995;stroke-linecap:round;stroke-linejoin:round;stroke-miterlimit:4;stroke-opacity:1;stroke-dasharray:none;stroke-dashoffset:0;display:inline" />
      <path
         d="m 11.25,45 a 2.25,2.25 0 1 1 -4.5,0 2.25,2.25 0 1 1 4.5,0 z"
         transform="translate(18,971.362)"
         id="connector14pad"
         style="fill:none;stroke:#f6ca34;stroke-width:1.79999995;stroke-linecap:round;stroke-linejoin:round;stroke-miterlimit:4;stroke-opacity:1;stroke-dasharray:none;stroke-dashoffset:0;display:inline" />
      <path
         d="m 11.25,45 a 2.25,2.25 0 1 1 -4.5,0 2.25,2.25 0 1 1 4.5,0 z"
         transform="translate(27,998.362)"
         id="connector4pad"
         style="fill:none;stroke:#f6ca34;stroke-width:1.79999995;stroke-linecap:round;stroke-linejoin:round;stroke-miterlimit:4;stroke-opacity:1;stroke-dasharray:none;stroke-dashoffset:0;display:inline" />
      <path
         d="m 11.25,45 a 2.25,2.25 0 1 1 -4.5,0 2.25,2.25 0 1 1 4.5,0 z"
         transform="translate(27,971.362)"
         id="connector13pad"
         style="fill:none;stroke:#f6ca34;stroke-width:1.79999995;stroke-linecap:round;stroke-linejoin:round;stroke-miterlimit:4;stroke-opacity:1;stroke-dasharray:none;stroke-dashoffset:0;display:inline" />
      <path
         d="m 11.25,45 a 2.25,2.25 0 1 1 -4.5,0 2.25,2.25 0 1 1 4.5,0 z"
         transform="translate(36,998.362)"
         id="connector5pad"
         style="fill:none;stroke:#f6ca34;stroke-width:1.79999995;stroke-linecap:round;stroke-linejoin:round;stroke-miterlimit:4;stroke-opacity:1;stroke-dasharray:none;stroke-dashoffset:0;display:inline" />
      <path
         d="m 11.25,45 a 2.25,2.25 0 1 1 -4.5,0 2.25,2.25 0 1 1 4.5,0 z"
         transform="translate(36,971.362)"
         id="connector12pad"
         style="fill:none;stroke:#f6ca34;stroke-width:1.79999995;stroke-linecap:round;stroke-linejoin:round;stroke-miterlimit:4;stroke-opacity:1;stroke-dasharray:none;stroke-dashoffset:0;display:inline" />
      <path
         d="m 11.25,45 a 2.25,2.25 0 1 1 -4.5,0 2.25,2.25 0 1 1 4.5,0 z"
         transform="translate(45,998.362)"
         id="connector6pad"
         style="fill:none;stroke:#f6ca34;stroke-width:1.79999995;stroke-linecap:round;stroke-linejoin:round;stroke-miterlimit:4;stroke-opacity:1;stroke-dasharray:none;stroke-dashoffset:0;display:inline" />
      <path
         d="m 11.25,45 a 2.25,2.25 0 1 1 -4.5,0 2.25,2.25 0 1 1 4.5,0 z"
         transform="translate(45,971.362)"
         id="connector11pad"
         style="fill:none;stroke:#f6ca34;stroke-width:1.79999995;stroke-linecap:round;stroke-linejoin:round;stroke-miterlimit:4;stroke-opacity:1;stroke-dasharray:none;stroke-dashoffset:0;display:inline" />
      <path
         d="m 11.25,45 a 2.25,2.25 0 1 1 -4.5,0 2.25,2.25 0 1 1 4.5,0 z"
         transform="translate(54,998.362)"
         id="connector7pad"
         style="fill:none;stroke:#f6ca34;stroke-width:1.79999995;stroke-linecap:round;stroke-linejoin:round;stroke-miterlimit:4;stroke-opacity:1;stroke-dasharray:none;stroke-dashoffset:0;display:inline" />
      <path
         d="m 11.25,45 a 2.25,2.25 0 1 1 -4.5,0 2.25,2.25 0 1 1 4.5,0 z"
         transform="translate(54,971.362)"
         id="connector10pad"
         style="fill:none;stroke:#f6ca34;stroke-width:1.79999995;stroke-linecap:round;stroke-linejoin:round;stroke-miterlimit:4;stroke-opacity:1;stroke-dasharray:none;stroke-dashoffset:0;display:inline" />
      <path
         d="m 11.25,45 a 2.25,2.25 0 1 1 -4.5,0 2.25,2.25 0 1 1 4.5,0 z"
         transform="translate(63,998.362)"
         id="connector8pad"
         style="fill:none;stroke:#f6ca34;stroke-width:1.79999995;stroke-linecap:round;stroke-linejoin:round;stroke-miterlimit:4;stroke-opacity:1;stroke-dasharray:none;stroke-dashoffset:0;display:inline" />
      <path
         d="m 11.25,45 a 2.25,2.25 0 1 1 -4.5,0 2.25,2.25 0 1 1 4.5,0 z"
         transform="translate(63,971.362)"
         id="connector9pad"
         style="fill:none;stroke:#f6ca34;stroke-width:1.79999995;stroke-linecap:round;stroke-linejoin:round;stroke-miterlimit:4;stroke-opacity:1;stroke-dasharray:none;stroke-dashoffset:0;display:inline" />
    </g>

  </g>
</svg>
