<?xml version="1.0" encoding="UTF-8"?>
<svg xmlns="http://www.w3.org/2000/svg" xmlns:xlink="http://www.w3.org/1999/xlink" width="2023.495pt" height="1094.655pt" viewBox="0 0 2023.495 1094.655" version="1.1">
<g id="surface1">
<path style=" stroke:none;fill-rule:nonzero;fill:rgb(69.412231%,74.510193%,77.6474%);fill-opacity:1;" d="M 323.394531 824.394531 L 263.71875 816.234375 L 263.546875 772.09375 L 291.636719 775.339844 L 1241.007812 885.046875 L 1240.929688 949.867188 L 573.96875 858.660156 L 393.078125 833.925781 Z M 323.394531 824.394531 "/>
<path style=" stroke:none;fill-rule:nonzero;fill:rgb(84.706116%,90.588379%,94.509888%);fill-opacity:1;" d="M 1603.539062 731.78125 L 1603.425781 768.535156 L 1473.355469 833.601562 L 1473.128906 927.191406 L 1435.472656 951.855469 L 1435.691406 852.441406 L 1315.667969 912.480469 L 1240.929688 949.867188 L 1241.007812 885.046875 Z M 1603.539062 731.78125 "/>
<path style=" stroke:none;fill-rule:nonzero;fill:rgb(71.372986%,76.863098%,79.608154%);fill-opacity:1;" d="M 1603.539062 731.78125 L 1241.007812 885.046875 L 291.636719 775.339844 L 908.511719 691.101562 Z M 1603.539062 731.78125 "/>
<path style=" stroke:none;fill-rule:nonzero;fill:rgb(99.215698%,99.215698%,99.215698%);fill-opacity:1;" d="M 1435.472656 951.855469 L 1315.632812 936.375 L 1315.667969 912.480469 L 1435.691406 852.441406 Z M 1435.472656 951.855469 "/>
<path style=" stroke:none;fill-rule:nonzero;fill:rgb(99.215698%,99.215698%,99.215698%);fill-opacity:1;" d="M 323.394531 824.394531 L 393.078125 833.925781 L 356.097656 906.074219 Z M 323.394531 824.394531 "/>
<path style=" stroke:none;fill-rule:nonzero;fill:rgb(94.117737%,94.117737%,94.117737%);fill-opacity:1;" d="M 356.097656 906.074219 L 393.078125 833.925781 L 573.96875 858.660156 Z M 356.097656 906.074219 "/>
<path style=" stroke:none;fill-rule:nonzero;fill:rgb(99.215698%,99.215698%,99.215698%);fill-opacity:1;" d="M 263.546875 772.09375 L 260.789062 63.078125 L 288.945312 56.734375 L 291.636719 775.339844 Z M 263.546875 772.09375 "/>
<path style=" stroke:none;fill-rule:nonzero;fill:rgb(100%,100%,100%);fill-opacity:1;" d="M 291.636719 775.339844 L 288.945312 56.734375 L 908.261719 221.152344 L 908.511719 691.101562 Z M 291.636719 775.339844 "/>
<path style="fill:none;stroke-width:1;stroke-linecap:butt;stroke-linejoin:miter;stroke:rgb(0%,0%,0%);stroke-opacity:1;stroke-miterlimit:10;" d="M 263.71875 278.420625 L 323.394531 270.260469 " transform="matrix(1,0,0,-1,0,1094.655)"/>
<path style="fill:none;stroke-width:1;stroke-linecap:butt;stroke-linejoin:miter;stroke:rgb(0%,0%,0%);stroke-opacity:1;stroke-miterlimit:10;" d="M 263.71875 278.420625 L 263.546875 322.56125 " transform="matrix(1,0,0,-1,0,1094.655)"/>
<path style="fill:none;stroke-width:1;stroke-linecap:butt;stroke-linejoin:miter;stroke:rgb(0%,0%,0%);stroke-opacity:1;stroke-miterlimit:10;" d="M 1603.425781 326.119844 L 1603.539062 362.87375 " transform="matrix(1,0,0,-1,0,1094.655)"/>
<path style="fill:none;stroke-width:0.5;stroke-linecap:butt;stroke-linejoin:miter;stroke:rgb(0%,0%,0%);stroke-opacity:1;stroke-miterlimit:10;" d="M 1241.007812 209.608125 L 1240.929688 144.787812 " transform="matrix(1,0,0,-1,0,1094.655)"/>
<path style="fill:none;stroke-width:0.5;stroke-linecap:butt;stroke-linejoin:miter;stroke:rgb(0%,0%,0%);stroke-opacity:1;stroke-miterlimit:10;" d="M 1603.539062 362.87375 L 1241.007812 209.608125 " transform="matrix(1,0,0,-1,0,1094.655)"/>
<path style="fill:none;stroke-width:0.5;stroke-linecap:butt;stroke-linejoin:miter;stroke:rgb(0%,0%,0%);stroke-opacity:1;stroke-miterlimit:10;" d="M 1241.007812 209.608125 L 291.636719 319.315156 " transform="matrix(1,0,0,-1,0,1094.655)"/>
<path style="fill:none;stroke-width:1;stroke-linecap:butt;stroke-linejoin:miter;stroke:rgb(0%,0%,0%);stroke-opacity:1;stroke-miterlimit:10;" d="M 1435.472656 142.799531 L 1473.128906 167.463594 " transform="matrix(1,0,0,-1,0,1094.655)"/>
<path style="fill:none;stroke-width:1;stroke-linecap:butt;stroke-linejoin:miter;stroke:rgb(0%,0%,0%);stroke-opacity:1;stroke-miterlimit:10;" d="M 1315.632812 158.28 L 1435.472656 142.799531 " transform="matrix(1,0,0,-1,0,1094.655)"/>
<path style="fill:none;stroke-width:0.5;stroke-linecap:butt;stroke-linejoin:miter;stroke:rgb(0%,0%,0%);stroke-opacity:1;stroke-miterlimit:10;" d="M 1435.691406 242.213594 L 1435.472656 142.799531 " transform="matrix(1,0,0,-1,0,1094.655)"/>
<path style="fill:none;stroke-width:1;stroke-linecap:butt;stroke-linejoin:miter;stroke:rgb(0%,0%,0%);stroke-opacity:1;stroke-miterlimit:10;" d="M 1315.667969 182.174531 L 1315.632812 158.28 " transform="matrix(1,0,0,-1,0,1094.655)"/>
<path style="fill:none;stroke-width:1;stroke-linecap:butt;stroke-linejoin:miter;stroke:rgb(0%,0%,0%);stroke-opacity:1;stroke-miterlimit:10;" d="M 1473.355469 261.053437 L 1473.128906 167.463594 " transform="matrix(1,0,0,-1,0,1094.655)"/>
<path style="fill:none;stroke-width:0.5;stroke-linecap:butt;stroke-linejoin:miter;stroke:rgb(0%,0%,0%);stroke-opacity:1;stroke-miterlimit:10;" d="M 323.394531 270.260469 L 393.078125 260.729219 " transform="matrix(1,0,0,-1,0,1094.655)"/>
<path style="fill:none;stroke-width:1;stroke-linecap:butt;stroke-linejoin:miter;stroke:rgb(0%,0%,0%);stroke-opacity:1;stroke-miterlimit:10;" d="M 323.394531 270.260469 L 356.097656 188.580781 " transform="matrix(1,0,0,-1,0,1094.655)"/>
<path style="fill:none;stroke-width:0.5;stroke-linecap:butt;stroke-linejoin:miter;stroke:rgb(0%,0%,0%);stroke-opacity:1;stroke-miterlimit:10;" d="M 356.097656 188.580781 L 393.078125 260.729219 " transform="matrix(1,0,0,-1,0,1094.655)"/>
<path style="fill:none;stroke-width:1;stroke-linecap:butt;stroke-linejoin:miter;stroke:rgb(0%,0%,0%);stroke-opacity:1;stroke-miterlimit:10;" d="M 356.097656 188.580781 L 573.96875 235.994844 " transform="matrix(1,0,0,-1,0,1094.655)"/>
<path style="fill:none;stroke-width:1;stroke-linecap:butt;stroke-linejoin:miter;stroke:rgb(0%,0%,0%);stroke-opacity:1;stroke-miterlimit:10;" d="M 263.546875 322.56125 L 260.789062 1031.576875 " transform="matrix(1,0,0,-1,0,1094.655)"/>
<path style="fill:none;stroke-width:1;stroke-linecap:butt;stroke-linejoin:miter;stroke:rgb(0%,0%,0%);stroke-opacity:1;stroke-miterlimit:10;" d="M 260.789062 1031.576875 L 288.945312 1037.920625 " transform="matrix(1,0,0,-1,0,1094.655)"/>
<path style="fill:none;stroke-width:0.5;stroke-linecap:butt;stroke-linejoin:miter;stroke:rgb(0%,0%,0%);stroke-opacity:1;stroke-miterlimit:10;" d="M 288.945312 1037.920625 L 291.636719 319.315156 " transform="matrix(1,0,0,-1,0,1094.655)"/>
<path style="fill:none;stroke-width:0.5;stroke-linecap:butt;stroke-linejoin:miter;stroke:rgb(0%,0%,0%);stroke-opacity:1;stroke-miterlimit:10;" d="M 291.636719 319.315156 L 263.546875 322.56125 " transform="matrix(1,0,0,-1,0,1094.655)"/>
<path style="fill:none;stroke-width:1;stroke-linecap:butt;stroke-linejoin:miter;stroke:rgb(0%,0%,0%);stroke-opacity:1;stroke-miterlimit:10;" d="M 908.261719 873.502656 L 908.511719 403.553437 " transform="matrix(1,0,0,-1,0,1094.655)"/>
<path style="fill:none;stroke-width:1;stroke-linecap:butt;stroke-linejoin:miter;stroke:rgb(0%,0%,0%);stroke-opacity:1;stroke-miterlimit:10;" d="M 288.945312 1037.920625 L 908.261719 873.502656 " transform="matrix(1,0,0,-1,0,1094.655)"/>
<path style="fill:none;stroke-width:0.5;stroke-linecap:butt;stroke-linejoin:miter;stroke:rgb(0%,0%,0%);stroke-opacity:1;stroke-miterlimit:10;" d="M 291.636719 319.315156 L 908.511719 403.553437 " transform="matrix(1,0,0,-1,0,1094.655)"/>
<path style="fill:none;stroke-width:1;stroke-linecap:butt;stroke-linejoin:miter;stroke:rgb(0%,0%,0%);stroke-opacity:1;stroke-miterlimit:10;" d="M 908.511719 403.553437 L 1603.539062 362.87375 " transform="matrix(1,0,0,-1,0,1094.655)"/>
<path style="fill:none;stroke-width:1;stroke-linecap:butt;stroke-linejoin:miter;stroke:rgb(0%,0%,0%);stroke-opacity:1;stroke-miterlimit:10;" d="M 1435.691406 242.213594 L 1315.667969 182.174531 " transform="matrix(1,0,0,-1,0,1094.655)"/>
<path style="fill:none;stroke-width:1;stroke-linecap:butt;stroke-linejoin:miter;stroke:rgb(0%,0%,0%);stroke-opacity:1;stroke-miterlimit:10;" d="M 1315.667969 182.174531 L 1240.929688 144.787812 " transform="matrix(1,0,0,-1,0,1094.655)"/>
<path style="fill:none;stroke-width:1;stroke-linecap:butt;stroke-linejoin:miter;stroke:rgb(0%,0%,0%);stroke-opacity:1;stroke-miterlimit:10;" d="M 393.078125 260.729219 L 573.96875 235.994844 " transform="matrix(1,0,0,-1,0,1094.655)"/>
<path style="fill:none;stroke-width:1;stroke-linecap:butt;stroke-linejoin:miter;stroke:rgb(0%,0%,0%);stroke-opacity:1;stroke-miterlimit:10;" d="M 573.96875 235.994844 L 1240.929688 144.787812 " transform="matrix(1,0,0,-1,0,1094.655)"/>
<path style="fill:none;stroke-width:1;stroke-linecap:butt;stroke-linejoin:miter;stroke:rgb(0%,0%,0%);stroke-opacity:1;stroke-miterlimit:10;" d="M 1473.355469 261.053437 L 1603.425781 326.119844 " transform="matrix(1,0,0,-1,0,1094.655)"/>
</g>
</svg>
